<svg data-name="Layer 3" xmlns="http://www.w3.org/2000/svg" viewBox="0 0 384.43 405.06">

<!-- Add styles inside the SVG file -->
<style>
#boatSvg {
  width: 120px;
  justify-content: center;
}
#boatAnimation {
  stroke-dasharray: 1901;
  stroke-dashoffset: 1901;
  animation: draw 5s linear forwards;
}
@keyframes draw {
  to {
    stroke-dashoffset: 0;
  }
}
</style>

  <path id="boatAnimation" d="M.5.01l1.49 275.61a1231.94 1231.94 0 00162.75 6.17 26.77 26.77 0 01-15.8-25.84 763.46 763.46 0 00138.89-.76 454.68 454.68 0 00-59.35 3.76 1196.94 1196.94 0 01-4-139.55c24.59 37.55 49.46 78.3 49.29 123.19l-121.1 5.58a94.8 94.8 0 0044.81-24.5c5.79-5.67 10.92-12.25 13.52-19.92 1.95-5.76 2.39-11.91 2.81-18l4.86-69.8 8.92 127.37c.28 4 .77 8.41 3.78 11 2.14 1.85 5.11 2.37 7.91 2.75a176.48 176.48 0 0047.66-.1c.12 9.54-7.31 17.87-16 21.78s-18.51 4.31-28 4.65l-87.63 3.1c58.85-18.18 122-18.59 183-9.92 7.27 1 15 2.41 20.37 7.43 5.95 5.55 7.6 14.19 8.93 22.21q8.19 49.37 16.37 98.72" fill="none" stroke="#231f20" stroke-miterlimit="10"/>
</svg>
