<svg id="boatSvg" class="show" xmlns="http://www.w3.org/2000/svg" viewBox="0 0 1038.35 673.46">
  <path d="M.17 2.1c42 15.31 85.42 30.85 130.05 28.41 54.73-3 106.34-32.9 161.07-29.78 46.71 2.66 88.52 29 133.85 40.55a217 217 0 00116.07-2.61c26-7.9 50.34-20.66 76.56-27.7s56.07-7.63 78.62 7.5c14.13 9.48 24 24.14 37.17 34.88 32.35 26.31 79 25.26 116.25 44 64.13 32.25 84.89 112.07 98.81 182.49l-47.17 4.33 23.85 225.76c.58 5.43 1.23 11.09 4.22 15.67 4.14 6.33 11.79 9.22 18.93 11.72 20.89 7.3 47.9 13.1 62-3.94 9.53-11.52 8.12-28.28 6-43.08a1617 1617 0 00-35.67-176.8 308.55 308.55 0 016.6 112.89l-61.52 6.22a433 433 0 00-12.4-91.48 229.22 229.22 0 0198.45-20.64c1.63 61 19.19 120.46 24.56 181.24s-3.85 127.52-46.63 171c-45-46.81-71.2-109.1-84.62-172.62s-14.92-128.88-16.37-193.79a161.31 161.31 0 00112.1-21.83 1876.55 1876.55 0 0130.52 193.67" fill="none" stroke="#231f20" stroke-miterlimit="10"/>
</svg>
